<svg id="Layer_1" data-name="Layer 1" xmlns="http://www.w3.org/2000/svg" viewBox="0 0 2047.27 806.04"><defs><style>.cls-1{fill:#cd8232;}</style></defs><path class="cls-1" d="M582,8h29.37c25.45,0,37.76,9.51,37.76,29.09,0,20-12.73,29.51-38.18,29.51H596v34.27H582Zm29,46.72c16.78,0,23.92-4.9,23.92-17.63,0-12.31-6.72-17.2-23.5-17.2H596V54.7Z"/><path class="cls-1" d="M695.28,8h14V88.26H753v12.59H695.28Z"/><path class="cls-1" d="M791.79,64.35V8h14V64.07c0,17.62,7.42,26,23.36,26,16.09,0,22.94-8.11,22.94-25.87V8h13.85V64.21c0,25.87-13.85,38.32-36.65,38.32C804.66,102.53,791.79,89.24,791.79,64.35Z"/><path class="cls-1" d="M914.59,8h23.78l23.92,73.57L987.74,8h22.94v92.87H997V20.43l-28.81,80.42H955.85L928.3,21.27v79.58H914.59Z"/><path class="cls-1" d="M1059.64,8h35.1c20.42,0,31.19,8.39,31.19,24.48,0,9.37-5,15.66-13.85,19,11.33,3.64,18.05,10.91,18.05,22.66,0,17.76-11.75,26.71-34.55,26.71h-35.94Zm32.44,38.32c12.59,0,19.17-4.61,19.17-13,.41-9.24-4.34-13-16.23-13h-21.4v26Zm2.52,42.24c13.43,0,20.28-4.61,20.28-15.1.28-10.21-6.85-15.11-20.56-15.11h-20.7V88.54Z"/><path class="cls-1" d="M1175.73,8h14v92.87h-14Z"/><path class="cls-1" d="M1253.07,28.12v72.73h-13.7V8h16.22l46,69.37V8h13.7v93h-13.56Z"/><path class="cls-1" d="M1361.05,55.53c0-30.21,17.76-49.23,43.64-49.23,21.4,0,35.66,10.77,39.16,32.17l-14.83.14c-2.51-13.71-11-19.44-24.47-19.44-17.34,0-29.09,13.29-29.09,35.66v1.26c0,21.12,11.18,33.85,29.09,33.85,13.7,0,24.19-8.81,24.89-22h-22.93V55.81H1444v45h-12.45V86.72c-5.31,10.07-15.24,15.81-28.25,15.81C1377.69,102.53,1361.05,84.35,1361.05,55.53Z"/><path class="cls-1" d="M598.14,768.31h15.11c2.8,13.7,10.07,18.88,24.33,18.88,12.59,0,19.87-5.87,19.87-15.67,0-9.23-11.06-11.74-24.48-14.26-15.39-3.08-31.75-8.11-31.75-26,0-16.08,13.57-27.83,32.59-27.83,20.84,0,34.4,10.21,37.2,31.05h-15c-2-13.57-9.66-18.74-22.38-18.74-11.47,0-18.6,5.87-18.6,14.82,0,9.94,12.17,11.89,25.45,14.41,15.25,2.94,30.91,7.69,30.91,25.88,0,16.92-12.45,28.67-33.43,28.67C614.37,799.5,601.78,788.45,598.14,768.31Z"/><path class="cls-1" d="M716.61,705.09h64.76v12.45H730.46v25.87h34v12.45h-34v29.65h53V798H716.61Z"/><path class="cls-1" d="M828.5,705.09h35c23.64,0,35.11,8.81,35.11,27,0,12.73-6.58,22-20.7,24.9l24,41H885.85l-22-38.74H842.35V798H828.5Zm34,42.38c15.8,0,21.26-4.9,21.26-15.53,0-10.21-5.59-15-21.12-15H842.35v30.49Z"/><path class="cls-1" d="M936.48,705.09h14.83L977.88,782l25.74-76.92h14.54l-33,92.87H969.63Z"/><path class="cls-1" d="M1060.69,705.09h14V798h-14Z"/><path class="cls-1" d="M1121,751.52c0-29.09,17.76-48.11,43.08-48.11,20.84,0,36.64,10.63,40.7,34.55h-15c-3.07-16.23-12.87-21.54-25.87-21.54-17.07,0-28.53,13-28.53,34.54v1.12c0,21.68,11.32,34.55,28.25,34.55,13.42,0,23.63-5.73,26.43-22.66h14.83c-3.64,24.76-20,35.67-41.54,35.67C1138.59,799.64,1121,780.48,1121,751.52Z"/><path class="cls-1" d="M1248.94,705.09h64.76v12.45h-50.91v25.87h34v12.45h-34v29.65h53V798h-66.86Z"/><path class="cls-1" d="M1353.85,768.31H1369c2.8,13.7,10.07,18.88,24.34,18.88,12.59,0,19.86-5.87,19.86-15.67,0-9.23-11.05-11.74-24.48-14.26-15.38-3.08-31.75-8.11-31.75-26,0-16.08,13.57-27.83,32.59-27.83,20.84,0,34.41,10.21,37.21,31.05h-15c-2-13.57-9.65-18.74-22.38-18.74-11.47,0-18.6,5.87-18.6,14.82,0,9.94,12.17,11.89,25.46,14.41,15.24,2.94,30.9,7.69,30.9,25.88,0,16.92-12.44,28.67-33.42,28.67C1370.07,799.5,1357.48,788.45,1353.85,768.31Z"/><path class="cls-1" d="M478.58,759.89H63.5A57.16,57.16,0,0,1,6.4,702.8V101.74A57.16,57.16,0,0,1,63.5,44.65H478.58V66.1H63.5a35.68,35.68,0,0,0-35.64,35.64V702.8A35.68,35.68,0,0,0,63.5,738.43H478.58Z"/><path class="cls-1" d="M1984.05,759.89H1569V738.43h415.09a35.68,35.68,0,0,0,35.64-35.63V101.74a35.68,35.68,0,0,0-35.64-35.64H1569V44.65h415.09a57.15,57.15,0,0,1,57.09,57.09V702.8A57.15,57.15,0,0,1,1984.05,759.89Z"/><path class="cls-1" d="M544.71,263.85c-16.11,0-28.77,12.09-28.77,28.2a28.37,28.37,0,0,0,28.77,28.19h221c40.86,0,73.66,32.23,73.66,73.09s-32.8,73.08-73.66,73.08h-221a28.85,28.85,0,0,0-28.77,28.77,28.37,28.37,0,0,0,28.77,28.19H827.25v45.46H534.93c-41.43,0-74.81-32.8-74.81-73.65,0-41.43,33.38-74.23,74.81-74.23h221c15.54,0,28.2-12.09,28.2-27.62,0-15-12.66-27.05-28.2-27.05h-221c-41.43,0-74.81-33.38-74.81-74.23,0-41.43,33.38-73.66,74.81-73.66H827.25v45.46Z"/><path class="cls-1" d="M171.43,568.05V217.4H282.72c87.92,0,140.77,37.61,140.77,104.18,0,47.26-26.93,80.3-74.7,95l80.29,151.44h-63L290.34,425.76H228.85V568.05Zm57.42-303.38V378.5h59c49.3,0,75.72-19.82,75.72-56.92s-26.42-56.91-75.72-56.91Z"/><path class="cls-1" d="M1405.59,570.56,1289.72,219.92h59L1460,559.38l111.8-339.46h58.44L1514.85,570.56Z"/><path class="cls-1" d="M1675.42,570.56V219.92h208.86v47.26H1732.85v99.6h146.86V414H1732.85V523.3h155.5v47.26Z"/><path class="cls-1" d="M1187,526c16.12,0,28.78-12.08,28.78-28.19a28.37,28.37,0,0,0-28.78-28.2H966c-40.86,0-73.66-32.22-73.66-73.08s32.8-73.08,73.66-73.08h221a28.85,28.85,0,0,0,28.78-28.77,28.37,28.37,0,0,0-28.78-28.2H904.42V221h292.32c41.43,0,74.8,32.8,74.8,73.66,0,41.43-33.37,74.23-74.8,74.23h-221c-15.54,0-28.2,12.08-28.2,27.62,0,15,12.66,27.05,28.2,27.05h221c41.43,0,74.8,33.37,74.8,74.23,0,41.43-33.37,73.65-74.8,73.65H904.42V526Z"/></svg>